PathFileType	4	(X/Y/Z)	RBDS08\RBDS08runT45.trc
DataRate	CameraRate	NumFrames	NumMarkers	Units	OrigDataRate	OrigDataStartFrame	OrigNumFrames
150.000000	150.000000	4	33	mm	150.000000	0	4500
Frame#	Time	L.ASIS			L.Heel.Bottom			L.Heel.Lateral			L.Heel.Top			L.Iliac.Crest			L.MT1			L.MT5			L.PSIS			L.Shank.Bottom.Lateral			L.Shank.Bottom.Medial			L.Shank.Top.Lateral			L.Shank.Top.Medial			L.Thigh.Bottom.Lateral			L.Thigh.Bottom.Medial			L.Thigh.Top.Lateral			L.Thigh.Top.Medial			R.ASIS			R.ASY			R.Heel.Bottom			R.Heel.Lateral			R.Heel.Top			R.Iliac.Crest			R.MT1			R.MT5			R.PSIS			R.Shank.Bottom.Lateral			R.Shank.Bottom.Medial			R.Shank.Top.Lateral			R.Shank.Top.Medial			R.Thigh.Bottom.Lateral			R.Thigh.Bottom.Medial			R.Thigh.Top.Lateral			R.Thigh.Top.Medial			
		X1	Y1	Z1	X2	Y2	Z2	X3	Y3	Z3	X4	Y4	Z4	X5	Y5	Z5	X6	Y6	Z6	X7	Y7	Z7	X8	Y8	Z8	X9	Y9	Z9	X10	Y10	Z10	X11	Y11	Z11	X12	Y12	Z12	X13	Y13	Z13	X14	Y14	Z14	X15	Y15	Z15	X16	Y16	Z16	X17	Y17	Z17	X18	Y18	Z18	X19	Y19	Z19	X20	Y20	Z20	X21	Y21	Z21	X22	Y22	Z22	X23	Y23	Z23	X24	Y24	Z24	X25	Y25	Z25	X26	Y26	Z26	X27	Y27	Z27	X28	Y28	Z28	X29	Y29	Z29	X30	Y30	Z30	X31	Y31	Z31	X32	Y32	Z32	X33	Y33	Z33	

1	0	2162.30195806043	927.5931712936215	898.6224893146117	1812.638633510484	631.1752558581027	942.5091327864016	1829.285019097858	600.1470821721138	896.7763577887022	1857.002810471501	605.871492516114	951.3807047784943	2113.377686629487	1005.759034495641	854.4743100499988	1774.737840303027	404.2876141443732	959.2446931939137	1783.272460055638	452.9622089916666	857.7245804519354	1990.119234383825	986.0324278189049	931.1285920306967	1933.630218672122	537.7236629464754	891.4841223126168	1939.087006133151	573.8202021415823	927.9345775357074	2013.599079145691	533.9610657597118	880.2868598887243	2022.755278431986	567.8979659180809	920.2814720514289	2212.329121994383	582.9889517498477	835.0825114163706	2160.995305807072	550.190754930475	875.6163315816194	2149.713571429138	673.8031663716281	830.0031567229186	2099.636306144122	641.8485099165833	866.4380309193199	2124.981286984571	955.4271726573832	1129.149414153681	2023.899085820587	86.70557135011711	1000.312616460036	1837.650091032601	37.09113120064496	1010.732803343056	1867.317688791434	52.85002716727166	1050.397157906864	1854.517897328255	84.04895100546022	1005.396672307352	2064.179327707802	1015.643868200513	1145.909819639851	2061.668630416744	46.31774652995345	963.9255659012559	2031.438873728536	43.41136141051743	1068.097988137496	1973.909510418092	1002.85063035324	1024.845670746156	1950.038610135028	162.3282167457126	1064.214379016793	1922.553312268602	185.1484902305143	1022.047172945325	1975.193216966936	237.4928860272841	1084.587140678677	1952.375003980564	257.1861899407867	1039.639775198489	2099.158952563214	559.0709237257918	1145.675204392823	2042.7314026063	548.1829492411466	1100.947198631907	2062.339649876	661.2811196283986	1165.465869958965	2009.014756682032	650.3457728531567	1123.977118741049	
2	0.006666666666666667	2162.577034136993	932.3320136358013	899.5447609125613	1818.989155607988	616.2645734513864	940.6511353651026	1837.850688194902	586.2961540938426	895.255428260431	1864.806627172661	594.8621653634841	949.6397880998675	2114.440565121582	1010.480443681394	855.4029604793891	1799.720195528954	388.6133052995163	959.2914731124276	1804.009559531851	436.4302308409546	857.5160132575462	1990.171036789609	990.2612737513765	932.2156074705177	1946.58858363604	531.4686893559139	890.7177097590608	1949.457754339249	568.1913829800507	926.7113902862176	2026.394649829381	532.8462152616303	879.5986345524245	2033.109115279417	567.6964491204252	919.2116564630551	2224.489983411098	596.0653321913389	835.3855762252749	2174.809726523702	560.8293056159853	875.6820512487376	2157.722343726603	683.3705955031023	830.1598972697186	2109.160323511257	648.9984119499293	866.2461000228774	2125.183922378817	958.1077302145471	1129.454968328361	1994.132023169976	87.55326832324373	1000.936100021403	1807.558002192599	37.91696024328922	1011.355795497042	1837.471473054972	53.61779837601991	1051.161501765001	1824.238181719876	85.22483254782651	1006.363917593561	2066.120651835137	1020.041018935641	1146.66617667838	2032.056514067316	47.00219208694981	964.1569535053694	2001.874480188232	43.48603221457378	1068.094409737495	1974.242451232586	1006.148117176312	1026.26385575343	1922.041353582315	164.1063161477772	1064.824113850893	1894.409153917575	187.3865465910884	1022.995146293455	1948.359863894037	238.7853350093242	1085.109426596812	1925.503751618418	258.9121001255551	1040.423227038925	2080.979798605648	559.2534794197436	1144.864266018402	2024.392317640371	551.2111810719372	1100.074158896888	2049.421274996099	663.0623529233969	1164.412746420075	1995.741775585249	654.8549455193526	1122.923631620985	
3	0.01333333333333333	2162.949831582048	937.174838967955	900.4752097656261	1825.703300057944	600.9268946653006	938.8766842952863	1846.755852430246	572.0944385853214	893.8134720945893	1872.878775486169	583.4612645493251	947.9736299927384	2115.553255531729	1015.303719286297	856.3111354721752	1825.032634491707	373.0009341599823	959.4307396218459	1825.128876597244	419.8737210040728	857.3812271556079	1990.315030636112	994.557919603295	933.2585227554345	1959.662469284456	524.9868520845081	890.0268094338425	1959.923947676999	562.2625848936274	925.5712220405561	2039.18844381247	531.5226623076326	878.983761025547	2043.432473482336	567.2150858024999	918.2146824689294	2236.431405803623	609.1299583100453	835.7070400216995	2188.378067298354	571.5383642131604	875.7972078127821	2165.631172163465	692.9724369722519	830.2825144646288	2118.565307036119	656.2677642335052	866.0599021602736	2125.49649956997	960.7612546390496	1129.739733589953	1964.600874116986	88.5003602609501	1001.506175945409	1777.518933054411	39.27465737533615	1011.957868966709	1807.751555582368	54.83523725116341	1051.899420246737	1794.153268562811	86.88092464794718	1007.267889466113	2068.312898616907	1024.432963117729	1147.342396233927	2002.439542771749	47.63021018115508	964.3272292947897	1972.364959501227	43.65316213304915	1068.098051236567	1974.692365675762	1009.492597432305	1027.688201900835	1894.134617951423	166.2342198286558	1065.392160544704	1866.341519728069	189.9832635836306	1023.889279124426	1921.568295527082	240.4379409459692	1085.629948011213	1898.666814503278	261.0029600279492	1041.187234642314	2062.819465608137	559.787777530524	1144.11741441251	2006.093110352451	554.6244082546908	1099.284622509866	2036.597956960394	665.1012729192555	1163.431445796235	1982.596759578628	659.655122292684	1121.953590362891	
4	0.02	2163.511057203321	942.2186753263132	901.4122868943219	1833.108654354099	584.7821374101768	937.2585464511221	1856.3082065487	557.2347023061501	892.5213749677259	1881.462505608216	571.3216014935221	946.4498962088812	2116.755534586884	1020.330609249205	857.18097894655	1850.979291821088	357.503364076943	959.7387147647974	1846.980978990905	403.2784271532793	857.3826091684555	1990.637261613341	998.9893590958098	934.2292115328736	1972.965342312724	518.0913502573612	889.4791018034086	1970.581462522833	555.7783534908987	924.5902111087241	2051.989850912541	529.8238915726178	878.5108448705297	2053.708801789809	566.2194072344864	917.3602159920745	2247.960673596817	622.1956136730712	836.0757525246347	2201.484821975135	582.3977367350972	876.0042868047224	2173.352630233398	702.6596398713326	830.353076139902	2127.748445037501	663.7759463919567	865.8808710541764	2126.02625562287	963.3512669716579	1129.977575210386	1935.538143297515	89.5838352016102	1002.002178613501	1747.676725016763	41.69190517466578	1012.493731108446	1778.331078304186	56.92576860608627	1052.564290702566	1764.534224505636	89.47275389901674	1008.055304456693	2070.983629580452	1028.80391504035	1147.867238248884	1972.848016398588	48.12237120059246	964.386567096118	1942.940992995646	43.93401972504194	1068.093187747295	1975.372352267088	1012.927236630965	1029.130716728518	1866.430486751312	169.0272238341243	1065.88498358017	1838.474931245559	193.2457920808409	1024.673904111589	1894.863419244976	242.7886087420909	1086.138085830245	1871.924749093186	263.7877366189401	1041.898315535074	2044.685022534587	561.0234070901637	1143.502572755412	1987.864356542571	558.8132748499154	1098.665515278108	2023.953841264213	667.6527344996642	1162.604654082641	1969.698428776173	665.0399324522897	1121.159517245589	
